<svg width="539" height="444" viewBox="0 0 539 444" fill="none" xmlns="http://www.w3.org/2000/svg">
<path d="M116.692 15.3212H35.9811V197.788H116.692V15.3212Z" fill="white"/>
<path d="M121.638 202.904H31.0343V10.2058H121.638V202.904ZM40.9274 192.673H111.745V20.4371H40.9274V192.673Z" fill="#EBEBEB"/>
<path d="M116.692 103.678H35.9811V108.845H116.692V103.678Z" fill="#EBEBEB"/>
<path d="M116.692 65.156H35.9811V70.3228H116.692V65.156Z" fill="#EBEBEB"/>
<path d="M93.0309 25.1097V105.204H97.5652V25.1097H93.0309Z" fill="#EBEBEB"/>
<path d="M74.0693 25.1097V105.204H78.6037V25.1097H74.0693Z" fill="#EBEBEB"/>
<path d="M55.1075 25.1097L55.1075 105.204H59.6419L59.6419 25.1097H55.1075Z" fill="#EBEBEB"/>
<path d="M125.876 9.36157H26.7971V28.0679H125.876V9.36157Z" fill="#EBEBEB"/>
<path d="M125.876 9.36157H26.7971V22.4065H125.876V9.36157Z" fill="#DBDBDB"/>
<path d="M132.109 0H20.556V18.7063H132.109V0Z" fill="#EBEBEB"/>
<path d="M270.001 15.3212H189.29V197.788H270.001V15.3212Z" fill="white"/>
<path d="M274.956 202.904H184.352V10.2058H274.956V202.904ZM194.245 192.673H265.063V20.4371H194.245V192.673Z" fill="#EBEBEB"/>
<path d="M270.001 103.678H189.29V108.845H270.001V103.678Z" fill="#EBEBEB"/>
<path d="M270.001 65.156H189.29V70.3228H270.001V65.156Z" fill="#EBEBEB"/>
<path d="M246.349 25.1007V105.195H250.883V25.1007H246.349Z" fill="#EBEBEB"/>
<path d="M227.387 25.1007V105.195H231.921V25.1007H227.387Z" fill="#EBEBEB"/>
<path d="M208.425 25.1007V105.195H212.96V25.1007H208.425Z" fill="#EBEBEB"/>
<path d="M279.194 9.36157H180.115V28.0679H279.194V9.36157Z" fill="#EBEBEB"/>
<path d="M279.194 9.36157H180.115V22.4065H279.194V9.36157Z" fill="#DBDBDB"/>
<path d="M285.426 0H173.874V18.7063H285.426V0Z" fill="#EBEBEB"/>
<path d="M306.878 259.509L317.892 259.27L323.317 259.177C325.122 259.134 326.911 259.177 328.709 259.125L328.346 259.509L328.296 249.968L328.709 250.395L317.769 250.386C314.133 250.386 310.497 250.284 306.853 250.241L307.084 250.011C307.084 251.571 307.01 253.14 306.969 254.735L306.878 259.509ZM306.878 259.509L306.763 254.786C306.763 253.2 306.672 251.588 306.655 249.968V249.738H306.878C310.522 249.696 314.158 249.602 317.793 249.593L328.709 249.542H329.121V249.968V259.509V259.893H328.75C326.911 259.893 325.065 259.893 323.235 259.842L317.744 259.748L306.878 259.509Z" fill="#EBEBEB"/>
<path d="M319.054 271.54L330.069 271.301L335.493 271.207C337.299 271.164 339.088 271.207 340.885 271.156L340.522 271.54L340.481 261.999L340.885 262.425L329.97 262.374C326.334 262.374 322.698 262.272 319.054 262.229L319.285 261.999C319.285 263.559 319.211 265.128 319.178 266.722L319.054 271.54ZM319.054 271.54L318.939 266.816C318.939 265.23 318.848 263.619 318.832 261.999V261.769H319.054C322.698 261.726 326.334 261.632 329.97 261.624L340.885 261.573H341.306V261.999L341.264 271.54V271.923H340.852C339.014 271.923 337.175 271.923 335.337 271.872L329.846 271.778L319.054 271.54Z" fill="#EBEBEB"/>
<path d="M294.685 271.54L305.699 271.301L311.124 271.207C312.921 271.164 314.718 271.207 316.515 271.156L316.153 271.54L316.12 261.999L316.532 262.425L305.617 262.374C301.981 262.374 298.337 262.272 294.701 262.229L294.924 261.999C294.924 263.559 294.858 265.128 294.817 266.722L294.685 271.54ZM294.685 271.54L294.569 266.816C294.528 265.23 294.479 263.619 294.462 261.999V261.769H294.685C298.32 261.726 301.964 261.632 305.6 261.624L316.515 261.573H316.928V261.999L316.944 271.54V271.923H316.581C314.743 271.923 312.896 271.923 311.066 271.872L305.575 271.778L294.685 271.54Z" fill="#EBEBEB"/>
<path d="M13.334 271.54L24.34 271.301L29.7647 271.207C31.5702 271.164 33.3675 271.207 35.1647 271.156L34.7937 271.54L34.7525 261.999L35.1647 262.425L24.2741 262.374C20.6301 262.374 16.9944 262.272 13.3587 262.229L13.5813 261.999C13.5813 263.559 13.5071 265.128 13.4741 266.722L13.334 271.54ZM13.334 271.54L13.2103 266.816C13.2103 265.23 13.1196 263.619 13.1031 261.999V261.769H13.334C16.9697 261.726 20.6054 261.632 24.2493 261.624L35.1647 261.573H35.5769V261.999L35.5274 271.54V271.923H35.1647C33.3262 271.923 31.4795 271.923 29.6411 271.872L24.1504 271.778L13.334 271.54Z" fill="#EBEBEB"/>
<path d="M13.334 14.0935L24.34 13.8548L29.7647 13.7525C31.5702 13.7525 33.3675 13.7525 35.1647 13.7098L34.7937 14.085L34.7525 4.55279L35.1647 4.97057L24.2741 4.91941C20.6301 4.91941 16.9944 4.82562 13.3587 4.78299L13.5813 4.55279C13.5813 6.11307 13.5071 7.68187 13.4741 9.26773L13.334 14.0935ZM13.334 14.0935L13.2103 9.37004C13.2103 7.77566 13.1196 6.16422 13.1031 4.55279V4.32259H13.334C16.9697 4.32259 20.6054 4.18617 24.2493 4.18617L35.1647 4.13501H35.5769V4.56984L35.5274 14.102V14.4857H35.1647C33.3262 14.4857 31.4795 14.4857 29.6411 14.4857L24.1504 14.3834L13.334 14.0935Z" fill="#EBEBEB"/>
<path d="M1.19031 26.1499L12.1963 25.9197L17.621 25.8174C19.4265 25.8174 21.2155 25.8174 23.021 25.8174L22.6253 26.1499V16.6177L23.0375 17.0355L12.0727 16.9502C8.42874 16.9502 4.79304 16.8565 1.15733 16.8138L1.37993 16.5836C1.37993 18.1439 1.30573 19.7127 1.27275 21.2986L1.19031 26.1499ZM1.19031 26.1499L1.06665 21.435C1.06665 19.8406 0.975961 18.2292 0.959473 16.6177V16.3875H1.19031C4.82601 16.3875 8.46172 16.2511 12.1057 16.2511L23.021 16.2H23.4332V16.6348L23.3508 26.1499V26.5336H22.988C21.1413 26.5336 19.3029 26.5336 17.4644 26.5336L11.9738 26.4313L1.19031 26.1499Z" fill="#EBEBEB"/>
<path d="M319.054 14.102L330.069 13.8633L335.493 13.7695C337.299 13.7695 339.088 13.7695 340.885 13.7184L340.522 14.102L340.481 4.56132L340.885 4.98762L329.97 4.92794C326.334 4.92794 322.698 4.83415 319.054 4.79152L319.285 4.56132C319.285 6.12159 319.211 7.6904 319.178 9.27625L319.054 14.102ZM319.054 14.102L318.939 9.37857C318.939 7.78419 318.848 6.18128 318.832 4.56132V4.33111H319.054C322.698 4.33111 326.334 4.20322 329.97 4.19469L340.852 4.13501H341.273V4.56132L341.231 14.102V14.4857H340.852C339.014 14.4857 337.175 14.4857 335.337 14.4431L329.846 14.3493L319.054 14.102Z" fill="#EBEBEB"/>
<path d="M176.627 118.077L165.613 118.316L160.188 118.41C158.383 118.41 156.594 118.41 154.788 118.41L155.159 118.035L155.201 127.575L154.788 127.149L165.712 127.2C169.348 127.2 172.983 127.294 176.627 127.337L176.396 127.575C176.396 126.015 176.471 124.438 176.504 122.852L176.627 118.077ZM176.627 118.077L176.743 122.792C176.743 124.387 176.833 125.998 176.85 127.618V127.848H176.627C172.983 127.891 169.348 127.985 165.712 127.985L154.788 128.044H154.376V127.61L154.417 118.069V117.685H154.78C156.627 117.685 158.465 117.685 160.304 117.736L165.794 117.83L176.627 118.077Z" fill="#EBEBEB"/>
<path d="M164.426 106.047L153.42 106.286L147.995 106.38C146.19 106.422 144.392 106.38 142.595 106.422L142.966 106.047V115.588L142.554 115.161L153.469 115.213C157.113 115.213 160.749 115.306 164.385 115.349L164.162 115.588C164.162 114.027 164.236 112.45 164.269 110.864L164.426 106.047ZM164.426 106.047L164.549 110.762C164.549 112.356 164.64 113.968 164.657 115.588V115.818H164.426C160.79 115.861 157.154 115.954 153.51 115.954L142.595 116.014H142.166V115.588L142.216 106.047V105.663H142.579C144.417 105.663 146.264 105.663 148.102 105.714L153.593 105.808L164.426 106.047Z" fill="#EBEBEB"/>
<path d="M228.06 444C336.721 444 424.808 434.923 424.808 423.725C424.808 412.527 336.721 403.45 228.06 403.45C119.398 403.45 31.3112 412.527 31.3112 423.725C31.3112 434.923 119.398 444 228.06 444Z" fill="#EBEBEB"/>
<path d="M10.0361 332.058L76.0394 331.853L142.051 331.777L274.074 331.64L406.097 331.777L472.108 331.853L538.112 332.058L472.108 332.271L406.097 332.348L274.074 332.484L142.051 332.348L76.0394 332.271L10.0361 332.058Z" fill="#263238"/>
<path d="M511.73 12.8916H378.421V332.058H511.73V12.8916Z" fill="#C7C7C7"/>
<path d="M511.73 297.289H378.421V332.058H511.73V297.289Z" fill="#A6A6A6"/>
<path d="M385.404 12.8916H378.421V332.058H385.404V12.8916Z" fill="#DBDBDB"/>
<path d="M461.276 315.509L385.404 332.058V12.8916L461.276 36.219V315.509Z" fill="#EBEBEB"/>
<path d="M395.833 235.559C395.915 238.569 395.964 241.587 396.022 244.605C396.08 247.624 396.121 250.642 396.154 253.651C396.237 259.688 396.292 265.722 396.319 271.752C396.36 277.789 396.319 283.825 396.36 289.862C396.401 295.898 396.36 301.943 396.302 307.988L395.849 307.238C398.883 306.755 401.906 306.3 404.918 305.874L409.477 305.286C410.994 305.09 412.511 304.902 414.028 304.757C412.511 305.158 410.994 305.516 409.477 305.882L404.918 306.948C401.884 307.636 398.861 308.287 395.849 308.901L395.396 308.994V308.142C395.396 302.105 395.346 296.06 395.33 290.015C395.313 283.97 395.33 277.917 395.379 271.863C395.429 265.81 395.453 259.756 395.528 253.703C395.561 250.679 395.607 247.652 395.668 244.622C395.709 241.604 395.758 238.586 395.833 235.559Z" fill="#A6A6A6"/>
<path d="M418.76 297.28C418.678 293.946 418.628 290.604 418.579 287.262C418.529 283.92 418.471 280.586 418.439 277.235C418.362 270.551 418.307 263.86 418.274 257.165C418.224 250.463 418.274 243.77 418.208 237.069C418.142 230.367 418.208 223.666 418.257 216.964L418.727 217.765C414.951 217.839 411.178 217.871 407.408 217.859C405.528 217.859 403.643 217.837 401.752 217.791C399.873 217.791 397.985 217.731 396.097 217.655C397.985 217.459 399.873 217.305 401.752 217.16C403.632 217.015 405.528 216.862 407.408 216.751C411.184 216.501 414.957 216.296 418.727 216.137H419.189V216.99C419.238 223.674 419.238 230.367 419.255 237.052C419.271 243.736 419.255 250.429 419.213 257.122C419.172 263.815 419.139 270.508 419.065 277.201C419.032 280.549 418.988 283.903 418.933 287.262C418.884 290.57 418.834 293.929 418.76 297.28Z" fill="#A6A6A6"/>
<path d="M427.829 233.615C427.911 236.463 427.961 239.319 428.018 242.141C428.076 244.963 428.126 247.854 428.159 250.71C428.241 256.394 428.296 262.104 428.323 267.839C428.373 273.543 428.323 279.255 428.381 284.968C428.439 290.68 428.381 296.401 428.332 302.122L427.87 301.423C430.912 300.929 433.946 300.46 436.988 300.042L441.539 299.437C443.056 299.24 444.581 299.044 446.098 298.891C444.581 299.292 443.064 299.65 441.539 299.999L436.988 301.057C433.943 301.739 430.904 302.384 427.87 302.992L427.417 303.086V302.293C427.367 296.569 427.342 290.848 427.342 285.13C427.342 279.4 427.342 273.679 427.342 267.95C427.342 262.22 427.417 256.491 427.491 250.761C427.524 247.919 427.568 245.054 427.623 242.167C427.705 239.302 427.755 236.48 427.829 233.615Z" fill="#A6A6A6"/>
<path d="M450.78 291.823C450.698 288.677 450.648 285.522 450.599 282.368C450.549 279.213 450.483 276.067 450.451 272.904C450.368 266.595 450.31 260.277 450.277 253.95C450.228 247.624 450.228 241.298 450.203 234.971C450.178 228.645 450.203 222.318 450.244 215.992L450.706 216.742C446.936 216.816 443.165 216.85 439.395 216.845C437.515 216.845 435.627 216.845 433.739 216.794C431.852 216.742 429.972 216.742 428.084 216.674C429.972 216.487 431.86 216.342 433.739 216.197C435.619 216.052 437.515 215.907 439.395 215.796C443.171 215.566 446.938 215.361 450.706 215.208H451.168V215.984C451.217 222.301 451.217 228.619 451.242 234.929C451.267 241.238 451.242 247.556 451.242 253.882C451.242 260.208 451.168 266.518 451.102 272.844C451.102 276.007 451.028 279.179 450.978 282.342C450.929 285.505 450.854 288.652 450.78 291.823Z" fill="#A6A6A6"/>
<path d="M395.816 91.8004C395.899 94.8357 395.948 97.8625 395.998 100.889C396.047 103.916 396.105 106.951 396.138 109.978C396.209 116.02 396.262 122.065 396.295 128.113C396.295 134.158 396.295 140.195 396.344 146.231C396.393 152.268 396.344 158.304 396.286 164.341L395.825 163.488C398.858 163.735 401.892 164 404.893 164.341L409.436 164.844C410.953 165.023 412.47 165.193 413.987 165.415C412.47 165.415 410.953 165.415 409.436 165.415H404.893C401.859 165.415 398.826 165.287 395.825 165.176H395.379V164.324C395.341 158.27 395.319 152.219 395.313 146.171C395.313 140.126 395.313 134.073 395.355 128.036C395.396 122 395.437 115.946 395.511 109.91C395.511 106.892 395.586 103.882 395.643 100.864C395.701 97.8454 395.734 94.8187 395.816 91.8004Z" fill="#A6A6A6"/>
<path d="M418.694 159.046C418.62 155.695 418.571 152.345 418.513 148.994C418.455 145.643 418.406 142.284 418.373 138.933C418.301 132.22 418.246 125.516 418.208 118.82C418.167 112.11 418.167 105.417 418.15 98.7154C418.134 92.0139 418.15 85.3124 418.15 78.6279L418.62 79.5402C414.852 78.6876 411.093 77.835 407.325 76.9056C405.446 76.4538 403.566 75.9678 401.686 75.4733C399.807 74.9787 397.919 74.5098 396.039 73.9727C397.919 74.2284 399.798 74.5439 401.686 74.8253C403.574 75.1066 405.446 75.4392 407.325 75.7802C411.096 76.4452 414.861 77.1472 418.62 77.8861L419.082 77.9799V78.8325C419.131 85.5255 419.131 92.21 419.148 98.903C419.164 105.596 419.148 112.28 419.148 118.956C419.148 125.632 419.073 132.325 418.999 139.01C418.999 142.352 418.925 145.686 418.867 149.028C418.81 152.37 418.768 155.747 418.694 159.046Z" fill="#A6A6A6"/>
<path d="M427.746 97.5645C427.829 100.438 427.878 103.303 427.936 106.167C427.994 109.032 428.043 111.905 428.076 114.77C428.158 120.488 428.213 126.209 428.241 131.933C428.29 137.654 428.29 143.367 428.299 149.079C428.307 154.792 428.299 160.504 428.249 166.217L427.787 165.407C430.821 165.645 433.855 165.91 436.856 166.217L441.399 166.711C442.916 166.882 444.433 167.044 445.949 167.257C444.433 167.257 442.916 167.257 441.399 167.257L436.856 167.214C433.822 167.172 430.788 167.078 427.787 166.958H427.342V166.166C427.293 160.436 427.285 154.715 427.268 148.985C427.252 143.256 427.268 137.543 427.268 131.822C427.268 126.101 427.342 120.38 427.416 114.668C427.449 111.826 427.493 108.984 427.548 106.142C427.623 103.26 427.672 100.404 427.746 97.5645Z" fill="#A6A6A6"/>
<path d="M450.657 161.288C450.574 158.117 450.525 154.953 450.467 151.79C450.409 148.627 450.36 145.455 450.327 142.292C450.244 135.954 450.187 129.622 450.154 123.296C450.104 116.961 450.104 110.635 450.08 104.308C450.055 97.9818 450.08 91.6555 450.08 85.3376L450.541 86.1902C446.782 85.3547 443.02 84.4793 439.255 83.5642C437.375 83.1208 435.487 82.6434 433.608 82.1574C431.728 81.6714 429.848 81.1939 427.96 80.6738C429.848 80.9381 431.728 81.2451 433.608 81.5264C435.487 81.8078 437.367 82.1403 439.255 82.4814C443.014 83.1578 446.776 83.8683 450.541 84.6129L451.003 84.7067V85.4826C451.052 91.8089 451.052 98.1183 451.069 104.436C451.085 110.754 451.069 117.063 451.069 123.373C451.069 129.682 451.003 135.991 450.937 142.301C450.904 145.455 450.86 148.61 450.805 151.765C450.78 154.97 450.731 158.134 450.657 161.288Z" fill="#A6A6A6"/>
<path d="M395.808 38.7593C395.965 41.9395 396.064 45.0942 396.138 48.2488C396.212 51.4035 396.262 54.5496 396.295 57.6958L395.808 56.6982C397.325 57.0137 398.842 57.3633 400.351 57.7213C401.86 58.0794 403.377 58.4802 404.894 58.915C406.41 59.3498 407.919 59.7676 409.436 60.2792C410.953 60.7907 412.462 61.2853 413.979 61.8991C412.462 61.7883 410.953 61.5922 409.436 61.3535C407.919 61.1147 406.41 60.859 404.894 60.5605C403.377 60.2621 401.868 59.9296 400.351 59.5886C398.834 59.2475 397.325 58.8638 395.808 58.4546L395.322 58.3267V57.4741C395.322 54.3365 395.396 51.2159 395.47 48.0954C395.545 44.9748 395.652 41.8543 395.808 38.7593Z" fill="#A6A6A6"/>
<path d="M418.653 61.294C418.57 59.5376 418.521 57.7812 418.471 56.0333C418.422 54.2855 418.364 52.5291 418.331 50.7898C418.249 47.2941 418.194 43.8012 418.166 40.3112L418.645 41.2746C416.765 40.8313 414.877 40.2941 412.997 39.7996C411.118 39.3051 409.238 38.7424 407.358 38.1456C405.479 37.5487 403.599 36.9604 401.719 36.3125C400.779 35.997 399.831 35.6474 398.891 35.2893C397.952 34.9312 397.012 34.5902 396.072 34.1895C397.012 34.3173 397.952 34.4879 398.891 34.6584C399.831 34.8289 400.779 34.9909 401.719 35.1955C403.599 35.5877 405.479 36.0481 407.358 36.4915C409.238 36.9349 411.118 37.4635 412.997 37.9665C414.877 38.4696 416.757 39.0238 418.645 39.6206L419.123 39.7655V40.6181C419.123 44.0797 419.073 47.5385 418.974 50.9944C418.941 52.6996 418.897 54.4248 418.842 56.1698C418.776 57.8494 418.727 59.5717 418.653 61.294Z" fill="#A6A6A6"/>
<path d="M427.722 47.3538C427.878 50.3635 427.977 53.322 428.051 56.3403C428.126 59.3585 428.183 62.3086 428.216 65.2842L427.73 64.3292C429.247 64.6532 430.756 64.9943 432.272 65.3609C433.789 65.7275 435.298 66.1197 436.815 66.546C438.332 66.9723 439.841 67.3986 441.349 67.8932C442.858 68.3877 444.383 68.8907 445.892 69.4875C444.383 69.3597 442.866 69.155 441.358 68.9163C439.849 68.6776 438.324 68.4047 436.815 68.0637C435.306 67.7226 433.789 67.4242 432.272 67.0832C430.756 66.7421 429.247 66.3585 427.73 65.9577L427.235 65.8298V64.9772C427.235 62.0101 427.309 59.0516 427.384 56.1015C427.458 53.1515 427.565 50.2782 427.722 47.3538Z" fill="#A6A6A6"/>
<path d="M450.567 68.976C450.484 67.2707 450.435 65.6593 450.385 64.0052C450.336 62.3512 450.278 60.6971 450.237 59.0516C450.163 55.7434 450.105 52.4524 450.08 49.1613L450.55 50.0736C448.67 49.6217 446.791 49.0931 444.911 48.59C443.031 48.087 441.143 47.5328 439.264 46.9445C437.384 46.3562 435.504 45.7679 433.625 45.1284C432.685 44.813 431.745 44.4634 430.805 44.1138C429.865 43.7642 428.925 43.4232 427.986 43.031C428.925 43.1674 429.865 43.3465 430.805 43.517C431.745 43.6875 432.685 43.8666 433.625 44.0712C435.504 44.4719 437.384 44.9238 439.264 45.3757C441.143 45.8276 443.023 46.3562 444.911 46.8592C446.799 47.3623 448.67 47.9165 450.55 48.5048L451.028 48.6582V49.4256C451.028 52.6882 450.981 55.9509 450.888 59.2136C450.888 60.842 450.814 62.4705 450.756 64.099C450.698 65.7275 450.649 67.356 450.567 68.976Z" fill="#A6A6A6"/>
<path d="M441.069 176.525L441.094 206.792L450.665 206.665L450.641 176.917L441.069 176.525Z" fill="white"/>
<path d="M443.353 183.226V190.064L450.649 189.211L450.64 183.439L443.353 183.226Z" fill="#EBEBEB"/>
<path d="M443.353 179.807V186.645L456.04 186.934L456.032 180.259L443.353 179.807Z" fill="white"/>
<path d="M523.651 0V332.058H511.73V12.8915H378.413V332.058H366.508V0H523.651Z" fill="#263238"/>
<path d="M446.889 326.064C448.538 326.559 497.121 323.924 498.828 322.654C499.042 322.509 498.91 317.973 498.622 311.749L499.652 274.677L468.951 275.965L467.673 308.091C467.673 308.091 460.896 311.646 455.307 314.741C452.858 316.01 450.487 317.433 448.208 319.005C446.436 320.59 445.216 325.578 446.889 326.064Z" fill="#D3766A"/>
<path d="M446.889 326.064C448.538 326.559 497.121 323.924 498.828 322.654C499.042 322.509 498.91 317.973 498.621 311.749C486.717 314.972 454.927 320.693 453.847 318.118C453.443 317.103 454.16 315.884 455.265 314.75C452.816 316.018 450.446 317.442 448.167 319.013C446.436 320.59 445.215 325.578 446.889 326.064Z" fill="#DA5C5C"/>
<path d="M507.814 139.615C507.814 139.615 500.097 235.5 499.965 236.668C499.965 236.821 501.449 306.437 501.449 306.437L467.401 307.852C467.401 307.852 468.464 246.976 469.346 233.334C470.468 215.941 476.766 140.792 476.766 140.792L507.814 139.615Z" fill="#37474F"/>
<path d="M469.379 300.128C478.143 299.403 498.457 299.173 499.619 299.173C499.916 299.173 499.768 299.437 499.685 299.446C496.907 299.838 477.574 300.503 469.355 300.494C469.264 300.494 469.289 300.128 469.379 300.128Z" fill="#263238"/>
<path d="M499.966 236.659C499.966 236.659 499.966 236.941 499.966 237.444L483.337 140.553L507.814 139.615C507.814 139.615 500.097 235.491 499.966 236.659Z" fill="#263238"/>
<path d="M511.73 274.26L511.648 273.978L511.73 273.944V274.26Z" fill="#D3766A"/>
<path d="M511.87 316.532C511.821 316.66 511.772 316.779 511.73 316.907V328.844C510.624 329.402 509.484 329.887 508.317 330.293C506.586 330.515 505.844 325.425 506.891 323.242C508.375 320.955 509.991 318.763 511.73 316.677L511.87 316.532Z" fill="#D3766A"/>
<path d="M511.73 316.89C511.26 318.186 511.128 319.372 511.73 320.096V328.861C510.624 329.42 509.484 329.904 508.317 330.311C506.586 330.532 505.844 325.442 506.891 323.259C508.375 320.972 509.991 318.78 511.73 316.694L511.87 316.515C511.821 316.66 511.772 316.78 511.73 316.89Z" fill="#DA5C5C"/>
<path d="M511.73 139.461V283.246C507.559 267.711 502.332 247.581 499.99 235.986C499.496 233.521 499.166 231.45 498.935 229.881C497.08 215.25 494.722 185.289 493.37 163.531C493.37 163.531 489.347 160.973 486.462 158.824C485.552 158.185 484.702 157.46 483.922 156.659L483.856 156.582C482.595 155.039 481.185 149.684 478.852 144.014C478.745 143.759 478.638 143.494 478.522 143.23C478.407 142.966 478.316 142.744 478.201 142.497C478.085 142.249 477.879 141.763 477.706 141.405C477.624 141.201 477.525 141.005 477.434 140.809L480.971 140.672L483.337 140.578L507.814 139.64L509.298 139.581L511.73 139.461Z" fill="#37474F"/>
<path d="M482.974 156.208C485.078 157.163 487.076 158.35 488.935 159.746C490.913 161.102 492.719 162.679 494.623 164.137C494.698 164.188 494.623 164.316 494.549 164.265C492.546 162.977 490.427 161.852 488.481 160.53C486.499 159.319 484.626 157.927 482.884 156.37C482.818 156.301 482.892 156.173 482.974 156.208Z" fill="#263238"/>
<path d="M482.553 143.52C482.825 144.927 483.172 146.308 483.485 147.698C483.798 149.088 483.988 150.341 484.309 151.637C484.599 152.886 485.228 154.022 486.123 154.911C486.626 155.389 487.178 155.764 487.714 156.233C488.003 156.463 488.316 156.685 488.613 156.923C488.613 156.736 488.539 156.548 488.506 156.361C488.407 155.824 488.316 155.295 488.225 154.758C488.019 153.581 487.821 152.396 487.632 151.211C487.253 148.892 486.906 146.539 486.412 144.237C486.417 144.222 486.426 144.209 486.439 144.199C486.451 144.19 486.466 144.185 486.482 144.185C486.497 144.185 486.512 144.19 486.525 144.199C486.537 144.209 486.547 144.222 486.552 144.237C487.137 146.513 487.788 148.764 488.308 151.058C488.555 152.183 489.479 157.759 489.528 158.151C489.578 158.543 489.61 159.004 489.627 159.379C489.677 159.795 489.677 160.216 489.627 160.632C489.619 160.651 489.607 160.666 489.59 160.677C489.574 160.688 489.556 160.694 489.536 160.694C489.517 160.694 489.498 160.688 489.482 160.677C489.466 160.666 489.453 160.651 489.446 160.632C489.275 160.246 489.153 159.84 489.083 159.422C488.984 159.021 488.893 158.62 488.819 158.219C488.819 158.066 488.77 157.921 488.745 157.768C488.209 157.444 487.706 157.009 487.211 156.642C486.717 156.275 486.115 155.866 485.563 155.431C484.615 154.624 483.926 153.539 483.584 152.319C483.245 151.009 483.016 149.671 482.9 148.321C482.71 146.735 482.57 145.14 482.331 143.563C482.405 143.469 482.537 143.427 482.553 143.52Z" fill="#263238"/>
<path d="M511.746 95.774V105.775L510.353 105.639C510.271 105.409 510.18 105.161 510.089 104.897L509.85 104.164C509.743 103.823 509.636 103.456 509.529 103.072C509.455 102.834 509.389 102.595 509.331 102.339C509.273 102.083 509.141 101.623 509.059 101.248C509.001 101.009 508.943 100.762 508.894 100.515C508.845 100.267 508.737 99.7984 508.671 99.4232C508.622 99.1845 508.581 98.9372 508.548 98.69C508.515 98.4427 508.424 97.9738 508.375 97.5986L508.276 96.8654C508.276 96.5073 508.193 96.1492 508.16 95.774C508.16 95.5353 508.16 95.288 508.103 95.0408C508.045 94.7935 508.053 94.3161 508.045 93.9494C508.037 93.5828 508.045 93.4635 508.045 93.2162C508.045 93.2844 507.987 93.5487 507.913 93.9494C507.839 94.3502 507.798 94.6145 507.715 95.0408C507.715 95.271 507.633 95.5183 507.591 95.774C507.55 96.0298 507.476 96.4817 507.41 96.8654C507.41 97.0956 507.336 97.3428 507.295 97.5986C507.253 97.8544 507.179 98.3148 507.121 98.69L507.023 99.4232C506.965 99.7813 506.915 100.148 506.866 100.515L506.767 101.248L506.643 102.339C506.643 102.586 506.586 102.834 506.561 103.072C506.561 103.448 506.495 103.814 506.47 104.164C506.445 104.513 506.429 104.658 506.421 104.897C506.421 104.999 506.421 105.102 506.421 105.204L505.967 105.153L505.506 105.102L505.06 105.05H504.863L503.7 104.914H503.626C503.576 104.675 503.535 104.437 503.486 104.189C503.436 103.942 503.37 103.473 503.313 103.098L503.214 102.365C503.172 102.015 503.131 101.649 503.107 101.273C503.107 101.035 503.065 100.787 503.049 100.54C503.032 100.293 503.049 99.9007 503.049 99.5682C503.045 99.5285 503.045 99.4885 503.049 99.4488C503.045 99.4034 503.045 99.3577 503.049 99.3124V99.4488C503.049 99.6364 502.942 100.02 502.843 100.54C502.843 100.762 502.769 101.001 502.719 101.273C502.67 101.546 502.595 101.973 502.529 102.365C502.529 102.603 502.455 102.842 502.422 103.098C502.389 103.354 502.307 103.823 502.249 104.189L502.175 104.726L497.566 104.189L493.997 103.763L493.032 103.644L488.613 103.098L482.71 102.365L481.251 102.186C481.317 101.879 481.375 101.572 481.424 101.273C481.474 100.975 481.507 100.787 481.548 100.54C481.589 100.293 481.647 99.8069 481.68 99.4488C481.713 99.0907 481.737 98.9543 481.754 98.7155C481.754 98.3404 481.812 97.9738 481.82 97.6242C481.82 97.4537 481.82 97.2832 481.82 97.1212V96.891C481.828 96.8373 481.828 96.7826 481.82 96.729C481.824 96.715 481.824 96.7002 481.82 96.6863V96.5414C481.82 96.2003 481.82 95.8849 481.82 95.5779C481.737 92.5853 481.177 90.8545 481.185 91.3831C481.23 93.7022 480.878 96.0114 480.146 98.204C479.721 99.4741 479.136 100.681 478.407 101.793H478.028L472.826 101.137C471.704 101.009 476.428 97.7265 476.519 94.12C476.61 90.5134 474.573 86.7023 476.692 81.5354C477.269 80.1217 477.962 78.7612 478.761 77.4685C480.163 75.192 481.49 73.5635 482.43 70.5794V70.5026C482.525 70.1489 482.586 69.7861 482.611 69.4198C482.867 66.862 482.611 61.7463 483.799 57.074C483.914 56.588 484.054 56.1106 484.203 55.6416C484.445 54.8849 484.746 54.1494 485.101 53.4419C485.695 52.1529 486.549 51.0104 487.606 50.0913C488.662 49.1721 489.897 48.4976 491.227 48.1131H491.284C493.551 47.4012 495.97 47.3882 498.244 48.0757C500.518 48.7632 502.548 50.1213 504.088 51.9839C510.197 54.6185 508.704 63.9205 508.061 69.0362C507.994 69.6025 507.994 70.1751 508.061 70.7414C508.284 72.9837 509.545 74.706 510.996 76.6073V76.65L511.713 77.6049V95.6973C511.713 95.6973 511.738 95.7655 511.746 95.774Z" fill="#263238"/>
<path d="M511.73 76.0444V77.4767L511.441 77.1613L511.013 76.6923V76.6497C509.982 75.5654 509.108 74.3336 508.416 72.992C507.647 71.4123 507.359 69.6286 507.591 67.8763C507.61 68.8571 507.774 69.8291 508.078 70.7582C508.293 71.4291 508.587 72.0705 508.952 72.668C509.735 73.9112 510.669 75.0458 511.73 76.0444Z" fill="#263238"/>
<path d="M484.994 53.4335C484.122 55.3357 483.474 57.3395 483.065 59.4017C482.611 61.4651 482.24 63.554 481.935 65.6258L481.424 68.7293C481.273 69.7295 481.028 70.7119 480.691 71.6623C479.922 73.5342 478.833 75.2471 477.475 76.7183C476.789 77.5245 476.159 78.3792 475.587 79.2761C475.017 80.2079 474.549 81.2032 474.194 82.2432C473.867 83.2789 473.619 84.3393 473.452 85.4149C473.28 86.4967 473.236 87.5961 473.32 88.6889C473.403 89.7803 473.601 90.829 473.749 91.8436C473.904 92.8613 473.965 93.8919 473.93 94.9215C473.864 95.9479 473.562 96.9431 473.05 97.8251C472.539 98.7072 471.831 99.4508 470.987 99.9946C471.937 99.5289 472.761 98.8275 473.385 97.9528C474.009 97.0781 474.415 96.0572 474.565 94.9812C474.672 93.9069 474.672 92.8241 474.565 91.7498C474.491 90.6755 474.334 89.6439 474.318 88.6293C474.306 86.5922 474.652 84.5698 475.34 82.661C475.686 81.7254 476.122 80.8285 476.643 79.9838C477.193 79.1294 477.799 78.3147 478.456 77.5453C479.138 76.7289 479.776 75.875 480.369 74.9875C480.979 74.0769 481.473 73.0881 481.836 72.046C482.171 71.0094 482.405 69.9413 482.537 68.8572C482.694 67.8 482.809 66.7598 482.925 65.7111C483.172 63.6222 483.378 61.5333 483.675 59.4529C483.916 57.4053 484.358 55.3884 484.994 53.4335Z" fill="#263238"/>
<path d="M495.918 88.1093C493.947 99.7048 490.353 118.641 483.37 127.841C479.545 132.897 471.647 139.897 461.317 142.225V117.269C462.026 116.876 469.932 113.764 472.785 111.053C475.167 108.785 479.108 99.0653 488.968 86.4978C493.37 80.8791 496.882 82.4224 495.918 88.1093Z" fill="#D3766A"/>
<path d="M476.354 104.505L491.96 112.016C491.96 112.016 495.151 99.1505 496.305 89.9167C497.501 80.3163 493.008 79.6257 486.478 88.5781C482.767 93.6502 479.385 98.9708 476.354 104.505Z" fill="#DA5C5C"/>
<path d="M492.422 107.881C490.295 106.61 483.354 103.745 482.257 103.259C481.655 102.995 479.223 102.083 478.63 101.827C478.556 101.827 478.514 101.921 478.63 101.955C479.759 102.449 480.856 103.072 481.985 103.575C483.115 104.078 490.04 107.267 492.422 107.974C492.439 108 492.472 107.906 492.422 107.881Z" fill="#263238"/>
<path opacity="0.1" d="M475.398 142.472L475.299 143.205H511.73V142.472H475.398ZM475.654 140.647L475.555 141.38H511.73V140.647H475.654ZM475.909 138.823L475.81 139.556H511.73V138.823H475.909ZM476.165 136.998L476.066 137.731H511.73V136.989L476.165 136.998ZM476.429 135.173L476.321 135.907H511.73V135.173H476.429ZM476.684 133.349L476.577 134.082H511.73V133.349H476.684ZM476.94 131.524L476.832 132.257H511.73V131.524H476.94ZM477.195 129.7L477.088 130.441H511.714V129.7H477.195ZM477.451 127.875L477.344 128.617H511.73V127.875H477.451ZM477.706 126.05L477.607 126.792H511.73V126.05H477.706ZM477.962 124.226L477.863 124.968H511.73V124.2L477.962 124.226ZM478.218 122.401L478.119 123.143H511.73V122.401H478.218ZM478.481 120.577L478.374 121.318H511.73V120.577H478.481ZM478.589 118.752C478.589 118.752 478.589 118.829 478.646 118.863C478.656 118.891 478.67 118.917 478.687 118.94L478.613 119.468H511.714V118.727L478.589 118.752ZM488.968 116.927H477.937C478.02 117.18 478.116 117.428 478.226 117.669H488.679L488.968 116.927ZM477.739 116.927L478.061 117.669H511.73V116.927H477.739ZM477.08 115.103C477.154 115.359 477.245 115.606 477.327 115.845H511.73V115.103H477.08ZM476.577 113.278C476.635 113.534 476.692 113.781 476.758 114.02H511.73V113.278H476.577ZM476.264 111.454C476.26 111.471 476.26 111.488 476.264 111.505C476.264 111.732 476.297 111.962 476.363 112.195H511.722V111.454H476.264ZM506.635 110.371C506.553 110.141 506.479 109.902 506.388 109.638H492.546C492.488 109.902 492.431 110.149 492.373 110.371H506.635ZM476.132 109.638C476.132 109.885 476.132 110.124 476.132 110.371H511.689V109.638H476.132ZM506.957 108.546C506.874 108.299 506.792 108.06 506.718 107.813H505.786L506.017 108.546H506.957ZM476.288 107.813C476.288 108.06 476.214 108.299 476.189 108.546H511.706V107.813H476.288ZM476.775 105.988C476.684 106.244 476.602 106.492 476.536 106.722H511.706V105.988H476.775ZM477.525 104.164C477.41 104.411 477.302 104.658 477.203 104.897H511.706V104.164H477.525ZM478.407 102.339L478.036 103.073H511.706V102.339H478.407ZM504.541 104.164H484.392L486.107 104.897H504.756L504.616 104.369L504.541 104.164ZM479.396 100.515C479.256 100.762 479.116 101.009 478.992 101.248H511.706V100.515H479.396ZM480.443 98.6901L480.015 99.4234H511.706V98.6901H480.443ZM503.461 100.515C503.552 100.753 503.643 100.992 503.742 101.231H503.791C503.725 100.984 503.667 100.745 503.61 100.498L503.461 100.515ZM481.556 96.8656C481.466 97.019 481.367 97.164 481.284 97.3089C481.202 97.4539 481.161 97.505 481.103 97.5988H511.706V96.8656H481.556ZM511.706 95.7401C511.607 95.5099 511.508 95.2712 511.409 95.0495H482.727L482.257 95.7827H511.747C511.747 95.7827 511.739 95.7486 511.73 95.7401H511.706ZM510.601 93.1823H483.89L483.411 93.9155H510.931C510.848 93.7024 510.733 93.4551 510.626 93.2164L510.601 93.1823ZM509.727 91.3577H485.126L485.027 91.5026L484.879 91.7243L484.632 92.0909H510.106L509.727 91.3577ZM483.964 93.1823L483.634 93.7365L483.519 93.9155H494.887C494.937 93.6683 494.978 93.421 495.019 93.1823H483.964ZM508.754 89.5331H486.388L485.876 90.2749H509.191C509.034 90.0958 508.911 89.8145 508.779 89.5672L508.754 89.5331ZM507.641 87.7085H487.674L487.146 88.4503H508.136C507.987 88.2172 507.831 87.9813 507.666 87.7426L507.641 87.7085ZM506.891 86.6086L506.413 85.9948C506.387 85.9563 506.36 85.9192 506.33 85.8839H489.017L488.424 86.6854H506.891H506.916L506.891 86.6086ZM504.954 84.3833L504.698 84.1446L504.607 84.0593H490.411C490.279 84.2043 490.097 84.4345 489.858 84.7499H505.432C505.259 84.6903 505.118 84.5538 504.978 84.4174L504.954 84.3833ZM491.078 85.8839C491.147 86.1419 491.243 86.3908 491.367 86.6257H501.73C501.772 86.3748 501.83 86.1271 501.903 85.8839H491.078ZM502.892 82.6952C502.651 82.5273 502.4 82.3736 502.142 82.2347H492.612C492.478 82.3119 492.349 82.3973 492.224 82.4905C492.002 82.6355 491.788 82.806 491.573 82.9765H503.321C503.191 82.8866 503.056 82.8041 502.917 82.7293L502.892 82.6952Z" fill="black"/>
<path d="M500.592 83.2745C500.312 84.0418 497.064 87.1198 493.667 86.0625C492.018 85.5595 492.216 81.3902 492.216 81.3902L492.175 80.8957L491.565 74.0237L499.809 69.9993L500.988 69.4792C500.988 69.4792 501.037 71.3721 501.07 73.7423V74.0748C501.07 74.2112 501.07 74.3391 501.07 74.4585C501.07 74.8166 501.07 75.1747 501.07 75.5328C501.07 75.8909 501.07 76.0699 501.07 76.3854C501.07 76.7009 501.07 76.9481 501.07 77.238C501.042 79.259 500.882 81.2757 500.592 83.2745Z" fill="#D3766A"/>
<path d="M501.054 73.7678C500.166 75.5568 498.911 77.1243 497.378 78.3611C495.844 79.5979 494.069 80.4745 492.175 80.9298L491.565 74.0577L499.809 70.0334L500.988 69.5133C500.988 69.5133 501.021 71.4061 501.054 73.7678Z" fill="#263238"/>
<path d="M483.106 63.9203C482.174 76.0103 489.075 77.9457 491.589 78.1504C493.881 78.3379 501.689 78.6705 503.824 66.751C505.959 54.8315 500.815 50.5514 495.58 49.8522C490.345 49.1531 484.038 51.8388 483.106 63.9203Z" fill="#D3766A"/>
<path d="M485.077 61.3536C485.349 61.3536 485.604 61.2513 485.901 61.1916C486.204 61.1796 486.494 61.0625 486.725 60.8591C486.782 60.7832 486.812 60.6904 486.812 60.5948C486.812 60.4993 486.782 60.4064 486.725 60.3305C486.594 60.1984 486.43 60.105 486.252 60.06C486.074 60.015 485.887 60.0201 485.711 60.0747C485.337 60.1243 484.995 60.3194 484.755 60.6204C484.708 60.6864 484.678 60.7642 484.67 60.8459C484.661 60.9276 484.674 61.0101 484.707 61.0849C484.74 61.1597 484.791 61.2241 484.856 61.2713C484.921 61.3186 484.997 61.347 485.077 61.3536Z" fill="#263238"/>
<path d="M492.736 61.7799C492.464 61.7373 492.216 61.6606 491.911 61.5924C491.625 61.5733 491.354 61.4528 491.144 61.2513C491.088 61.1754 491.058 61.0826 491.058 60.987C491.058 60.8915 491.088 60.7986 491.144 60.7227C491.28 60.5935 491.445 60.5034 491.625 60.4615C491.804 60.4196 491.991 60.4274 492.167 60.484C492.54 60.5416 492.878 60.7425 493.115 61.0467C493.165 61.1167 493.195 61.2 493.201 61.2868C493.207 61.3736 493.189 61.4604 493.149 61.5372C493.109 61.6139 493.05 61.6775 492.976 61.7204C492.903 61.7634 492.82 61.784 492.736 61.7799Z" fill="#263238"/>
<path d="M490.897 64.8242C490.897 64.8242 490.963 64.8242 490.955 64.901C490.905 65.7536 490.955 66.6744 491.697 66.9728C491.697 66.9728 491.697 67.024 491.697 67.0154C490.814 66.862 490.732 65.5916 490.897 64.8242Z" fill="#263238"/>
<path d="M491.647 63.9885C492.933 63.9289 492.95 66.589 491.754 66.6487C490.559 66.7084 490.567 64.0312 491.647 63.9885Z" fill="#263238"/>
<path d="M492.15 64.1243C492.381 64.2693 492.603 64.5336 492.875 64.5592C493.147 64.5847 493.419 64.3119 493.626 64.0391H493.667C493.667 64.5506 493.494 65.0707 492.966 65.156C492.438 65.2412 492.142 64.7723 492.01 64.2607C491.985 64.2011 492.059 64.0646 492.15 64.1243Z" fill="#263238"/>
<path d="M486.594 64.3894C486.594 64.3894 486.536 64.432 486.536 64.4661C486.536 65.3188 486.478 66.2396 485.761 66.5209V66.5721C486.643 66.4271 486.775 65.1653 486.594 64.3894Z" fill="#263238"/>
<path d="M485.868 63.5363C484.582 63.4596 484.524 66.0941 485.711 66.1965C486.898 66.2988 486.948 63.6045 485.868 63.5363Z" fill="#263238"/>
<path d="M485.332 63.6641C485.126 63.8005 484.912 64.0563 484.673 64.0648C484.434 64.0733 484.186 63.7834 484.013 63.5021C484.013 64.0136 484.137 64.5423 484.607 64.6531C485.077 64.7639 485.365 64.3291 485.497 63.8005C485.481 63.792 485.415 63.6641 485.332 63.6641Z" fill="#263238"/>
<path d="M491.532 71.3379C491.367 71.5596 491.219 71.8495 490.938 71.9177C490.642 71.9521 490.343 71.926 490.056 71.8409C490.056 71.8409 490.007 71.8409 490.056 71.8409C490.191 71.9849 490.362 72.088 490.549 72.1391C490.736 72.1902 490.934 72.1873 491.12 72.1308C491.283 72.0642 491.421 71.9457 491.514 71.7924C491.608 71.6391 491.651 71.459 491.639 71.2782C491.623 71.2697 491.557 71.2612 491.532 71.3379Z" fill="#263238"/>
<path d="M487.764 68.0983C487.764 68.0983 487.591 69.3346 487.591 69.9143C487.591 69.9655 487.723 69.9911 487.913 70.0081C488.394 70.1043 488.892 70.0604 489.35 69.8812C489.809 69.7021 490.21 69.3948 490.51 68.9935C490.551 68.9338 490.51 68.8742 490.427 68.9083C489.701 69.4205 488.831 69.6694 487.954 69.6159C487.954 69.4539 488.317 67.5185 488.226 67.51C487.79 67.5513 487.361 67.6487 486.948 67.7999C487.228 65.242 487.913 62.6842 488.16 60.1264C488.16 60.0326 488.036 60.007 488.012 60.1264C487.199 62.7909 486.647 65.533 486.363 68.3114C486.379 68.6269 487.533 68.2006 487.764 68.0983Z" fill="#263238"/>
<path d="M487.953 69.846C488.284 70.3369 488.729 70.733 489.248 70.9971C489.533 71.1371 489.854 71.176 490.163 71.1079C490.831 70.9715 490.88 70.3405 490.789 69.7949C490.739 69.5018 490.656 69.2157 490.542 68.9423C489.795 69.522 488.888 69.8387 487.953 69.846Z" fill="#263238"/>
<path d="M489.248 70.997C489.533 71.137 489.855 71.176 490.163 71.1078C490.831 70.9714 490.88 70.3405 490.79 69.7948C490.44 69.7883 490.098 69.9031 489.818 70.121C489.539 70.3389 489.338 70.6473 489.248 70.997Z" fill="#FF9ABB"/>
<path d="M503.486 65.8811C502.216 65.8043 498.918 62.1893 498.82 55.8629C498.82 55.8629 499.289 61.5413 499.702 62.3768C500.114 63.2124 497.855 60.3391 497.707 55.2405C496.153 56.3891 494.448 57.3021 492.645 57.9518C490.311 58.6253 488.885 58.5998 488.712 58.4292C488.539 58.2587 492.01 57.1418 492.908 56.0334C492.908 56.0334 486.709 59.009 483.84 59.2392C483.51 59.2392 483.114 52.2308 487.533 49.2466C491.952 46.2625 498.96 49.4854 500.839 51.3696C500.839 51.3696 503.049 51.6936 505.448 55.0785C507.847 58.4633 504.854 65.9663 503.486 65.8811Z" fill="#263238"/>
<path d="M501.004 67.6288C501.004 67.6288 503.354 63.7068 505.069 64.5509C506.784 65.395 505.151 70.9796 503.247 71.8493C503.01 71.9766 502.75 72.0532 502.484 72.0744C502.217 72.0956 501.949 72.061 501.696 71.9726C501.443 71.8843 501.209 71.744 501.01 71.5602C500.81 71.3764 500.649 71.1528 500.534 70.9029L501.004 67.6288Z" fill="#D3766A"/>
<path d="M504.566 66.1368C504.566 66.1368 504.566 66.1368 504.566 66.1965C503.953 66.5551 503.421 67.0448 503.006 67.6329C502.591 68.221 502.302 68.8941 502.159 69.607C502.229 69.456 502.332 69.3232 502.458 69.218C502.584 69.1129 502.732 69.038 502.889 68.9989C503.047 68.9598 503.211 68.9573 503.37 68.9917C503.529 69.026 503.678 69.0964 503.807 69.1977V69.283C503.563 69.2154 503.305 69.2285 503.069 69.3202C502.832 69.4119 502.629 69.5777 502.488 69.7945C502.259 70.16 502.065 70.5485 501.911 70.9541C501.854 71.082 501.631 71.0308 501.672 70.8859C501.491 69.0272 502.703 66.4267 504.566 66.1368Z" fill="#263238"/>
<path d="M501.615 71.6532C501.629 71.8178 501.689 71.9744 501.788 72.1042C501.887 72.234 502.02 72.3312 502.172 72.3842C502.323 72.4371 502.486 72.4434 502.641 72.4023C502.795 72.3613 502.935 72.2746 503.043 72.1529C503.151 72.0311 503.223 71.8796 503.249 71.7166C503.275 71.5536 503.255 71.3863 503.191 71.2349C503.127 71.0835 503.022 70.9547 502.889 70.8639C502.755 70.7732 502.599 70.7246 502.439 70.7239C502.324 70.7234 502.211 70.7477 502.106 70.7953C502 70.8429 501.906 70.9126 501.828 71.0001C501.751 71.0876 501.692 71.1909 501.655 71.3033C501.618 71.4158 501.604 71.535 501.615 71.6532Z" fill="white"/>
<path d="M511.747 95.774V122.657L511.656 122.401L511.285 121.318C511.194 121.071 511.112 120.824 511.029 120.576L510.658 119.494L510.403 118.752L510.032 117.669C509.949 117.422 509.867 117.175 509.776 116.927C509.686 116.68 509.537 116.203 509.414 115.844C509.29 115.486 509.249 115.35 509.158 115.103C509.067 114.855 508.919 114.378 508.795 114.02L508.548 113.278L508.325 112.587V112.519L508.226 112.229L507.979 111.488C507.855 111.121 507.74 110.763 507.624 110.405C507.624 110.32 507.567 110.234 507.542 110.158C507.539 110.115 507.539 110.072 507.542 110.03C507.501 109.91 507.46 109.791 507.427 109.672C507.303 109.305 507.188 108.938 507.072 108.58C506.957 108.222 506.907 108.094 506.833 107.847C506.759 107.6 506.594 107.114 506.479 106.756C506.363 106.398 506.322 106.261 506.248 106.022C506.174 105.784 506.066 105.46 505.984 105.17C505.984 105.084 505.926 104.999 505.901 104.914C505.827 104.667 505.745 104.419 505.671 104.181C505.555 103.814 505.44 103.447 505.333 103.089L505.11 102.356C504.995 101.99 504.879 101.623 504.78 101.265C504.681 100.907 504.624 100.77 504.558 100.532C504.442 100.156 504.335 99.7983 504.236 99.4402C504.137 99.0821 504.088 98.9457 504.022 98.707C503.915 98.3318 503.807 97.9737 503.708 97.6156C503.61 97.2575 503.568 97.1211 503.502 96.8824C503.395 96.5072 503.296 96.1406 503.206 95.791C503.115 95.4415 503.074 95.2965 503.008 95.0578C502.942 94.8191 502.851 94.4439 502.777 94.1455C502.773 94.0859 502.773 94.0261 502.777 93.9664C502.711 93.7107 502.653 93.4719 502.604 93.2332C502.513 92.8581 502.439 92.4914 502.373 92.1419C502.307 91.7923 502.282 91.6473 502.241 91.4086C502.175 91.0335 502.126 90.6669 502.084 90.3258C502.043 89.9848 502.027 89.8228 502.01 89.584C502.01 89.2004 501.961 88.8423 501.961 88.5012C501.961 88.1602 501.961 87.9896 501.961 87.7594C501.98 87.3966 502.018 87.0351 502.076 86.6766C502.112 86.4245 502.17 86.1763 502.249 85.9349C502.356 85.5419 502.535 85.1742 502.777 84.852C502.932 84.6411 503.13 84.4673 503.356 84.3422C503.582 84.2172 503.832 84.1439 504.088 84.1273C504.294 84.1279 504.499 84.1566 504.698 84.2126C505.819 84.4854 507.212 85.4915 508.82 87.2735C509.776 88.3648 510.757 89.5414 511.738 90.8033V95.774C511.738 95.774 511.738 95.7655 511.747 95.774Z" fill="#D3766A"/>
<path d="M511.746 95.7744V110.883L510.543 111.454L508.976 112.196L508.317 112.503L507.492 112.869C507.492 112.869 507.402 112.631 507.245 112.179C507.171 111.974 507.088 111.727 506.989 111.437C506.891 111.147 506.759 110.763 506.627 110.354C506.544 110.124 506.47 109.885 506.379 109.621L506.033 108.529L505.802 107.796C505.703 107.447 505.588 107.089 505.472 106.705C505.398 106.466 505.332 106.227 505.258 105.972L504.978 105.034C504.968 104.982 504.954 104.93 504.937 104.88C504.871 104.642 504.796 104.403 504.722 104.147C504.648 103.891 504.524 103.431 504.425 103.056C504.359 102.817 504.294 102.57 504.219 102.322C504.145 102.075 504.03 101.598 503.931 101.231C503.832 100.865 503.807 100.745 503.749 100.498C503.692 100.251 503.56 99.7732 503.469 99.4066C503.411 99.1678 503.345 98.9206 503.288 98.6733C503.23 98.426 503.115 97.9486 503.024 97.582C502.933 97.2153 502.909 97.096 502.859 96.8487C502.81 96.6015 502.768 96.4821 502.727 96.2945C502.686 96.107 502.645 95.9364 502.612 95.7574C502.579 95.5783 502.496 95.2714 502.447 95.0241L502.348 94.5637C502.298 94.3506 502.257 94.1374 502.216 93.9328C502.175 93.7282 502.117 93.4383 502.076 93.1995C502.01 92.8244 501.944 92.4578 501.895 92.1082C501.845 91.7586 501.82 91.6137 501.787 91.375C501.746 90.9998 501.705 90.6417 501.672 90.2921L501.622 89.5504C501.622 89.1667 501.622 88.8086 501.622 88.4675C501.622 88.1265 501.622 87.956 501.622 87.7258C501.644 87.3627 501.685 87.0012 501.746 86.643C501.788 86.3921 501.846 86.1443 501.919 85.9012C502.017 85.516 502.176 85.1501 502.389 84.8184C502.575 84.5069 502.837 84.2512 503.148 84.0766C503.52 83.8672 503.948 83.7865 504.368 83.8464C505.728 83.9999 507.542 85.2532 509.694 87.7002C510.353 88.459 511.029 89.2605 511.713 90.096V95.7233C511.713 95.7233 511.738 95.7659 511.746 95.7744Z" fill="#DA5C5C"/>
<path d="M508.21 112.484C507.991 112.582 507.761 112.651 507.526 112.689C507.427 112.041 506.619 109.279 506.413 108.579C506 107.113 505.588 105.663 505.151 104.197C504.327 101.273 503.502 98.3396 502.678 95.4236C502.678 95.3639 502.579 95.4236 502.587 95.4236C502.95 97.4955 503.412 99.5417 503.915 101.571C503.774 101.221 503.634 100.863 503.502 100.505C503.239 99.7975 502.991 99.0898 502.678 98.3907C502.678 98.3794 502.674 98.3686 502.666 98.3606C502.658 98.3526 502.648 98.3481 502.637 98.3481C502.626 98.3481 502.615 98.3526 502.608 98.3606C502.6 98.3686 502.596 98.3794 502.596 98.3907C502.777 99.137 503.017 99.867 503.313 100.573C503.535 101.119 503.791 101.656 504.038 102.193C504.22 102.901 504.401 103.609 504.591 104.316C504.978 105.791 505.415 107.258 505.827 108.707C506.042 109.406 506.264 110.097 506.487 110.788C506.735 111.535 507.05 112.257 507.427 112.945C507.712 112.839 507.988 112.708 508.251 112.553C508.366 112.561 508.301 112.45 508.21 112.484Z" fill="#263238"/>
<path d="M511.73 107.761V108.247L511.104 108.546L510.898 108.639C510.131 108.998 509.348 109.304 508.573 109.637C508.21 109.79 507.847 109.952 507.493 110.123C507.418 110.123 507.352 110.046 507.427 110.004H507.468L508.144 109.645L510.189 108.554C510.485 108.401 510.733 108.264 510.881 108.196L511.639 107.821L511.73 107.761Z" fill="#263238"/>
<path d="M490.988 83.2745C490.988 83.2745 491.045 83.2745 491.037 83.2745C490.806 84.8092 490.889 86.4377 492.101 87.5375C493.313 88.6374 495.118 88.3219 496.511 88.0235C497.964 87.7206 499.334 87.092 500.526 86.1819C501.573 85.3293 502.447 83.6837 501.516 82.311C501.516 82.2428 501.516 82.2087 501.565 82.2599C501.928 82.6584 502.162 83.164 502.235 83.7065C502.307 84.249 502.214 84.8013 501.969 85.2866C501.292 86.4527 500.26 87.3526 499.034 87.8445C497.74 88.4748 496.34 88.8396 494.912 88.9188C494.281 89.0119 493.637 88.9345 493.043 88.6939C492.449 88.4534 491.926 88.0579 491.524 87.546C491.118 86.9267 490.858 86.2178 490.765 85.476C490.672 84.7343 490.748 83.9803 490.988 83.2745Z" fill="#263238"/>
<path d="M511.748 95.7745C511.748 95.7745 511.737 95.7641 511.748 95.7745V95.7745Z" fill="#A6A6A6"/>
<path d="M511.87 308.005C511.821 308.133 511.771 308.253 511.73 308.381V308.184L511.87 308.005Z" fill="#A6A6A6"/>
<g filter="url(#filter0_d_1301_12)">
<path d="M323.549 431.215C306.577 430.781 293.14 415.34 293.535 396.727C293.931 378.114 308.01 363.376 324.981 363.81C341.953 364.244 355.39 379.684 354.995 398.298C354.599 416.911 340.521 431.648 323.549 431.215Z" stroke="black" stroke-width="2" stroke-miterlimit="10"/>
<path d="M126.437 431.218C109.461 431.218 95.699 416.125 95.699 397.507C95.699 378.888 109.461 363.795 126.437 363.795C143.413 363.795 157.175 378.888 157.175 397.507C157.175 416.125 143.413 431.218 126.437 431.218Z" stroke="black" stroke-width="2" stroke-miterlimit="10"/>
<path d="M267.53 396.786C267.548 388.794 269.003 380.884 271.814 373.51C274.625 366.136 278.735 359.443 283.91 353.815C305.745 329.966 341.165 329.966 363 353.815" stroke="black" stroke-width="2" stroke-miterlimit="10" stroke-linecap="round" stroke-linejoin="round"/>
<path d="M68.6261 396.784C68.6261 363.048 93.5601 335.708 124.321 335.708C155.081 335.708 180.009 363.054 180.009 396.79" stroke="black" stroke-width="2" stroke-miterlimit="10" stroke-linecap="round" stroke-linejoin="round"/>
<path d="M187.969 265.906H84.5393V300.812H187.969V265.906Z" stroke="black" stroke-width="2" stroke-miterlimit="10" stroke-linecap="round" stroke-linejoin="round"/>
<path d="M331.179 335.711L283.438 231H251.611" stroke="black" stroke-width="2" stroke-miterlimit="10" stroke-linecap="round" stroke-linejoin="round"/>
<path d="M267.53 397.508H180.008" stroke="black" stroke-width="2" stroke-miterlimit="10" stroke-linecap="round" stroke-linejoin="round"/>
<path d="M187.968 300.805C187.968 300.805 219.795 431.693 283.438 300.805" stroke="black" stroke-width="2" stroke-miterlimit="10" stroke-linecap="round" stroke-linejoin="round"/>
<path d="M84.5382 300.805C84.5382 300.805 60.6652 344.435 68.6247 396.787" stroke="black" stroke-width="2" stroke-miterlimit="10" stroke-linecap="round" stroke-linejoin="round"/>
</g>
<defs>
<filter id="filter0_d_1301_12" x="62" y="230" width="306" height="210.224" filterUnits="userSpaceOnUse" color-interpolation-filters="sRGB">
<feFlood flood-opacity="0" result="BackgroundImageFix"/>
<feColorMatrix in="SourceAlpha" type="matrix" values="0 0 0 0 0 0 0 0 0 0 0 0 0 0 0 0 0 0 127 0" result="hardAlpha"/>
<feOffset dy="4"/>
<feGaussianBlur stdDeviation="2"/>
<feComposite in2="hardAlpha" operator="out"/>
<feColorMatrix type="matrix" values="0 0 0 0 0 0 0 0 0 0 0 0 0 0 0 0 0 0 0.25 0"/>
<feBlend mode="normal" in2="BackgroundImageFix" result="effect1_dropShadow_1301_12"/>
<feBlend mode="normal" in="SourceGraphic" in2="effect1_dropShadow_1301_12" result="shape"/>
</filter>
</defs>
</svg>
